<svg xmlns="http://www.w3.org/2000/svg" width="169.318" height="32.696" viewBox="0 0 169.318 32.696">
  <g id="Grupo_605" data-name="Grupo 605" transform="translate(-178.682 -975.152)">
    <g id="Grupo_604" data-name="Grupo 604" transform="translate(-32)">
      <text id="Bitcoin" transform="translate(234 997)" fill="#fff" font-size="16" font-family="Montserrat-Medium, Montserrat" font-weight="500"><tspan x="0" y="0">Bitcoin</tspan></text>
      <text id="Adverse" transform="translate(314 997)" fill="#fff" font-size="16" font-family="Montserrat-Medium, Montserrat" font-weight="500"><tspan x="0" y="0">Adverse</tspan></text>
      <path id="Trazado_1336" data-name="Trazado 1336" d="M302.286,975.526v32.7" transform="translate(0 -0.374)" fill="none" stroke="#fff" stroke-width="1"/>
    </g>
    <path id="Icon_simple-bitcoin" data-name="Icon simple-bitcoin" d="M15.4,9.707A7.812,7.812,0,1,1,9.706.233,7.811,7.811,0,0,1,15.4,9.707Zm-4.136-3c.156-1.036-.634-1.6-1.719-1.973l.352-1.4-.856-.215L8.7,4.484c-.225-.057-.459-.109-.693-.163l.343-1.385-.86-.215-.352,1.41c-.186-.044-.368-.086-.547-.13L5.4,3.708l-.228.916s.635.147.622.154a.458.458,0,0,1,.4.5L5.237,9.132a.322.322,0,0,1-.4.2c.01.013-.625-.156-.625-.156l-.43.983,1.114.277L5.5,10.6l-.352,1.426.86.213.352-1.413c.234.065.459.124.684.178l-.332,1.4.86.215.355-1.426c1.459.278,2.56.167,3.022-1.155a1.507,1.507,0,0,0-.793-2.082A1.369,1.369,0,0,0,11.251,6.7h.007ZM9.3,9.451c-.263,1.068-2.056.488-2.638.345l.469-1.889c.584.15,2.447.436,2.169,1.544Zm.267-2.762c-.241.97-1.734.479-2.218.358l.426-1.719c.485.117,2.043.341,1.791,1.357v0Z" transform="translate(178.679 983.685)" fill="#fff"/>
  </g>
</svg>
