<svg xmlns="http://www.w3.org/2000/svg" width="167.422" height="32.696" viewBox="0 0 167.422 32.696">
  <g id="Grupo_607" data-name="Grupo 607" transform="translate(-180.578 -975.152)">
    <g id="Grupo_604" data-name="Grupo 604" transform="translate(-32)">
      <text id="Ripple" transform="translate(234 997)" fill="#fff" font-size="16" font-family="Montserrat-Medium, Montserrat" font-weight="500"><tspan x="0" y="0">Ripple</tspan></text>
      <text id="Adverse" transform="translate(314 997)" fill="#fff" font-size="16" font-family="Montserrat-Medium, Montserrat" font-weight="500"><tspan x="0" y="0">Adverse</tspan></text>
      <path id="Trazado_1336" data-name="Trazado 1336" d="M302.286,975.526v32.7" transform="translate(0 -0.374)" fill="none" stroke="#fff" stroke-width="1"/>
    </g>
    <path id="Icon_payment-ripple" data-name="Icon payment-ripple" d="M13.889,22.61a2.648,2.648,0,0,1-.794,1.677,2.289,2.289,0,0,1-1.677.706q-.883-.086-1.059.883a.857.857,0,0,0,.971.971A2.312,2.312,0,0,1,13.712,28.7a2.014,2.014,0,0,1-.265,1.721,2.485,2.485,0,0,1-1.5,1.1,2.1,2.1,0,0,1-1.721-.221,2.3,2.3,0,0,1-1.1-1.368,2.47,2.47,0,0,1,.265-1.942q.616-.881-.265-1.324-.707-.53-1.324.353-1.413,2.118-3.354.794a2.3,2.3,0,0,1-1.059-2.471,2.376,2.376,0,0,1,2.03-1.853A2.174,2.174,0,0,1,7.8,24.729a.871.871,0,0,0,1.324.441q.794-.441.265-1.412a2.308,2.308,0,0,1,.265-2.648A2.081,2.081,0,0,1,12.3,20.4a2.221,2.221,0,0,1,1.589,2.206Z" transform="translate(177.236 965.587)" fill="#fff"/>
  </g>
</svg>
