<svg id="Grupo_593" data-name="Grupo 593" xmlns="http://www.w3.org/2000/svg" width="18.188" height="16.453" viewBox="0 0 18.188 16.453">
  <path id="Trazado_1331" data-name="Trazado 1331" d="M80.366,11.014c-.021.021-.039.039-.055.058l-3.233,3.693q-.844.965-1.687,1.931a.175.175,0,0,1-.146.067q-1.3,0-2.6,0h-.082l-.006-.012,0-.008.008-.013.01-.012,6.467-7.395,0-.007.006-.014L72.188.317c.033,0,.053-.006.073-.006q2.806,0,5.614,0a.118.118,0,0,1,.1.051q.974,1.293,1.952,2.584l1.944,2.569c.011.015.023.028.039.049.02-.02.038-.036.054-.055l2.24-2.561L86.47.361A.13.13,0,0,1,86.576.31q1.328,0,2.658,0l.062,0c-.185.222-.372.428-.553.638l-.553.631-.553.631-.553.631q-.276.316-.553.631l-.557.638-.553.631-.553.631-.552.631-.553.631-.558.638,7.169,9.477c-.034,0-.055.006-.077.006h-.7q-2.372,0-4.744,0a.162.162,0,0,1-.148-.073q-1.8-2.362-3.609-4.722l-.686-.9c-.014-.019-.03-.036-.048-.058M75.441,1.892l.077.1,4.115,5.379,4.577,5.983,1.276,1.669a.121.121,0,0,0,.1.066c.476,0,.951,0,1.427,0a.386.386,0,0,0,.055-.009c-.021-.028-.035-.05-.051-.07l-1.347-1.782L81.112,7.2q-1.982-2.62-3.962-5.24a.143.143,0,0,0-.129-.065c-.494,0-.987,0-1.482,0h-.1" transform="translate(-72.188 -0.31)" fill="#1f2131"/>
</svg>
