<svg id="Grupo_594" data-name="Grupo 594" xmlns="http://www.w3.org/2000/svg" width="16.453" height="16.453" viewBox="0 0 16.453 16.453">
  <g id="Grupo_474" data-name="Grupo 474" transform="translate(0 0)">
    <path id="Trazado_1321" data-name="Trazado 1321" d="M49.058,3.722a.964.964,0,1,0,.965.965.965.965,0,0,0-.965-.965" transform="translate(-36.475 -0.785)" fill="#1f2131"/>
    <path id="Trazado_1322" data-name="Trazado 1322" d="M42.8,5.29A4.051,4.051,0,1,0,46.85,9.343h0A4.056,4.056,0,0,0,42.8,5.29m0,6.649a2.6,2.6,0,1,1,2.6-2.6,2.6,2.6,0,0,1-2.6,2.6" transform="translate(-34.506 -1.115)" fill="#1f2131"/>
    <path id="Trazado_1323" data-name="Trazado 1323" d="M44.886,16.454H38.317a4.948,4.948,0,0,1-4.942-4.942V4.942A4.948,4.948,0,0,1,38.317,0h6.569a4.948,4.948,0,0,1,4.942,4.941v6.57a4.949,4.949,0,0,1-4.942,4.942M38.317,1.549a3.4,3.4,0,0,0-3.393,3.393v6.57a3.4,3.4,0,0,0,3.393,3.394h6.57a3.4,3.4,0,0,0,3.394-3.394V4.942a3.4,3.4,0,0,0-3.394-3.393Z" transform="translate(-33.375 -0.001)" fill="#1f2131"/>
  </g>
</svg>
