<svg xmlns="http://www.w3.org/2000/svg" width="13.847" height="13.847" viewBox="0 0 13.847 13.847">
  <g id="Icon_feather-copy" data-name="Icon feather-copy" transform="translate(-2.5 -2.5)">
    <path id="Trazado_1348" data-name="Trazado 1348" d="M14.785,13.5h5.781a1.285,1.285,0,0,1,1.285,1.285v5.781a1.285,1.285,0,0,1-1.285,1.285H14.785A1.285,1.285,0,0,1,13.5,20.566V14.785A1.285,1.285,0,0,1,14.785,13.5Z" transform="translate(-6.004 -6.004)" fill="none" stroke="#1f2131" stroke-linecap="round" stroke-linejoin="round" stroke-width="1"/>
    <path id="Trazado_1349" data-name="Trazado 1349" d="M4.927,11.35H4.285A1.285,1.285,0,0,1,3,10.066V4.285A1.285,1.285,0,0,1,4.285,3h5.781A1.285,1.285,0,0,1,11.35,4.285v.642" fill="none" stroke="#1f2131" stroke-linecap="round" stroke-linejoin="round" stroke-width="1"/>
  </g>
</svg>
