<svg id="Grupo_1359" data-name="Grupo 1359" xmlns="http://www.w3.org/2000/svg" xmlns:xlink="http://www.w3.org/1999/xlink" width="10.873" height="11.616" viewBox="0 0 10.873 11.616">
  <defs>
    <clipPath id="clip-path">
      <rect id="Rectángulo_632" data-name="Rectángulo 632" width="10.873" height="11.616" fill="none"/>
    </clipPath>
  </defs>
  <g id="Grupo_1359-2" data-name="Grupo 1359" clip-path="url(#clip-path)">
    <path id="Trazado_1347" data-name="Trazado 1347" d="M1.071,9.033q0-1.2,0-2.395c0-.193,0-.193-.2-.194-.242,0-.484,0-.726,0C.018,6.443,0,6.428,0,6.3Q0,5.625,0,4.95c0-.123.015-.137.139-.138.25,0,.5,0,.749,0,.034,0,.068,0,.1,0a.076.076,0,0,0,.078-.081c0-.045,0-.091,0-.136q0-2.2,0-4.392c0-.2,0-.2.192-.2C2.768,0,4.274,0,5.78,0A5.627,5.627,0,0,1,7.71.3,4.28,4.28,0,0,1,9.947,2.1a5.979,5.979,0,0,1,.768,2.038,9,9,0,0,1,.144,1.216,8.34,8.34,0,0,1-.3,2.773,5.179,5.179,0,0,1-.869,1.76,4.261,4.261,0,0,1-2.044,1.449,4.84,4.84,0,0,1-1.458.259c-.4.01-.809.017-1.214.018q-1.856,0-3.712,0c-.189,0-.189,0-.189-.188q0-1.2,0-2.395M3.063,8.2V9.725c0,.034,0,.068,0,.1,0,.125.015.138.136.141h.1c.511,0,1.021,0,1.532,0,.276,0,.552-.007.827-.024a4.065,4.065,0,0,0,1.2-.246,3.013,3.013,0,0,0,.97-.577,2.824,2.824,0,0,0,.786-1.23,6.308,6.308,0,0,0,.265-1.733,7.925,7.925,0,0,0-.042-1.292,6.127,6.127,0,0,0-.187-1.026,2.929,2.929,0,0,0-.673-1.2,3.036,3.036,0,0,0-1.47-.836,4.823,4.823,0,0,0-1.19-.156c-.688-.007-1.377,0-2.066,0-.186,0-.187,0-.187.192q0,1.39,0,2.781c0,.187,0,.188.191.189H5.978c.038,0,.076,0,.113,0,.082.005.1.021.1.1,0,.03,0,.06,0,.091q0,.619,0,1.237c0,.2,0,.2-.2.2H3.318c-.281,0-.255-.008-.255.25q0,.755,0,1.51" transform="translate(0 0)" fill="#fff"/>
  </g>
</svg>
