<svg xmlns="http://www.w3.org/2000/svg" xmlns:xlink="http://www.w3.org/1999/xlink" width="21" height="30" viewBox="0 0 21 30">
  <defs>
    <linearGradient id="linear-gradient" x1="0.5" x2="0.5" y2="1" gradientUnits="objectBoundingBox">
      <stop offset="0" stop-color="#e50056"/>
      <stop offset="1" stop-color="#6d19e5"/>
    </linearGradient>
  </defs>
  <path id="Icon_material-lightbulb-outline" data-name="Icon material-lightbulb-outline" d="M13.5,31.5A1.5,1.5,0,0,0,15,33h6a1.5,1.5,0,0,0,1.5-1.5V30h-9ZM18,3a10.5,10.5,0,0,0-6,19.11V25.5A1.5,1.5,0,0,0,13.5,27h9A1.5,1.5,0,0,0,24,25.5V22.11A10.5,10.5,0,0,0,18,3Zm4.275,16.65L21,20.55V24H15V20.55l-1.275-.9a7.5,7.5,0,1,1,8.55,0Z" transform="translate(-7.5 -3)" fill="url(#linear-gradient)"/>
</svg>
