<svg xmlns="http://www.w3.org/2000/svg" width="18.795" height="18.8" viewBox="0 0 18.795 18.8">
  <path id="Icon_ionic-ios-settings" data-name="Icon ionic-ios-settings" d="M21.743,13.9a2.419,2.419,0,0,1,1.552-2.256,9.587,9.587,0,0,0-1.16-2.795,2.451,2.451,0,0,1-.984.21,2.413,2.413,0,0,1-2.207-3.4,9.558,9.558,0,0,0-2.79-1.16,2.416,2.416,0,0,1-4.513,0A9.587,9.587,0,0,0,8.846,5.66a2.413,2.413,0,0,1-2.207,3.4,2.371,2.371,0,0,1-.984-.21,9.8,9.8,0,0,0-1.155,2.8,2.418,2.418,0,0,1,0,4.513,9.587,9.587,0,0,0,1.16,2.795A2.414,2.414,0,0,1,8.851,22.14a9.642,9.642,0,0,0,2.795,1.16,2.412,2.412,0,0,1,4.5,0,9.586,9.586,0,0,0,2.795-1.16,2.417,2.417,0,0,1,3.186-3.186,9.642,9.642,0,0,0,1.16-2.795A2.43,2.43,0,0,1,21.743,13.9Zm-7.8,3.911a3.916,3.916,0,1,1,3.916-3.916A3.915,3.915,0,0,1,13.941,17.808Z" transform="translate(-4.5 -4.5)" fill="#818188"/>
</svg>
