<svg id="Grupo_1355" data-name="Grupo 1355" xmlns="http://www.w3.org/2000/svg" xmlns:xlink="http://www.w3.org/1999/xlink" width="14.054" height="12.529" viewBox="0 0 14.054 12.529">
  <defs>
    <clipPath id="clip-path">
      <rect id="Rectángulo_631" data-name="Rectángulo 631" width="14.054" height="12.529" fill="none"/>
    </clipPath>
  </defs>
  <g id="Grupo_1354" data-name="Grupo 1354" clip-path="url(#clip-path)">
    <path id="Trazado_1346" data-name="Trazado 1346" d="M5.515,3.831a14.209,14.209,0,0,0,0-1.576c-.242-.01-.488,0-.733,0s-.487,0-.731,0H1.085a.9.9,0,0,1-.013-.1q0-1.025,0-2.05c0-.025,0-.05.008-.083A.836.836,0,0,1,1.164,0c.033,0,.065,0,.1,0H12.956c.031.089.041,2.019.013,2.19-.049,0-.1.009-.155.009h-4.1l-.12,0a.061.061,0,0,0-.068.067c0,.025,0,.051,0,.076q0,.622,0,1.243c0,.015,0,.029,0,.044,0,.086.01.094.093.1.12.009.239.015.359.023q.87.056,1.733.185a13.569,13.569,0,0,1,1.654.339,5.261,5.261,0,0,1,.982.358,3.377,3.377,0,0,1,.418.255,1.05,1.05,0,0,1,.2.2.436.436,0,0,1,.093.284q0,.829,0,1.658a.493.493,0,0,1-.158.37,2.1,2.1,0,0,1-.331.264,4.436,4.436,0,0,1-1.124.467,12.8,12.8,0,0,1-1.964.4q-.919.12-1.846.154c-.028,0-.056.007-.1.012,0,.052-.009.1-.009.15q0,1.756,0,3.511c0,.05,0,.1-.007.16-.047,0-.085.009-.124.009H5.635c-.085,0-.094-.012-.1-.094,0-.036,0-.073,0-.109q0-1.679,0-3.359c0-.166,0-.159-.167-.173-.543-.047-1.086-.092-1.627-.151a13.618,13.618,0,0,1-1.727-.307A7.048,7.048,0,0,1,.854,7.961a2.309,2.309,0,0,1-.566-.325,1.419,1.419,0,0,1-.2-.2A.438.438,0,0,1,0,7.148Q0,6.325,0,5.5a.55.55,0,0,1,.158-.383,1.528,1.528,0,0,1,.369-.286,4.434,4.434,0,0,1,.922-.391A12.08,12.08,0,0,1,3.44,4.015c.663-.092,1.328-.148,2-.174.025,0,.05-.006.079-.01M.281,6.261a.914.914,0,0,0,.267.259A3.156,3.156,0,0,0,1.32,6.9a9.953,9.953,0,0,0,1.658.413,22.284,22.284,0,0,0,3.22.3,27.843,27.843,0,0,0,3.354-.1,18.922,18.922,0,0,0,2.038-.291,8.3,8.3,0,0,0,1.556-.455,2.653,2.653,0,0,0,.688-.394c.038-.032.071-.069.113-.111a1.513,1.513,0,0,0-.132-.128,3.15,3.15,0,0,0-.268-.187,3.644,3.644,0,0,0-.705-.315,10.611,10.611,0,0,0-1.994-.457c-.406-.057-.814-.1-1.223-.141C9.3,5,8.979,4.989,8.656,4.97a.426.426,0,0,0-.083.014V6.589a.766.766,0,0,1-.085.015c-.341.016-.682.043-1.023.045-.512,0-1.024-.01-1.536-.02-.089,0-.178-.018-.28-.03V6.447q0-.67,0-1.341c0-.042,0-.085-.007-.135-.046,0-.082,0-.117,0-.319.022-.638.04-.956.067a15.839,15.839,0,0,0-2.078.312,7.935,7.935,0,0,0-1.538.477A2.462,2.462,0,0,0,.4,6.152c-.039.031-.073.068-.117.109" transform="translate(0 0.001)" fill="#fff"/>
  </g>
</svg>
