<svg id="Grupo_595" data-name="Grupo 595" xmlns="http://www.w3.org/2000/svg" width="16.717" height="11.702" viewBox="0 0 16.717 11.702">
  <path id="Trazado_1325" data-name="Trazado 1325" d="M129.818,6.679a3.668,3.668,0,0,0-3.667-3.669h-9.382A3.668,3.668,0,0,0,113.1,6.679v4.364a3.668,3.668,0,0,0,3.667,3.669h9.382a3.666,3.666,0,0,0,3.667-3.668h0ZM124.3,9.187,120.1,11.269c-.165.089-.727-.03-.727-.218V6.78c0-.19.564-.309.73-.215l4.026,2.191c.17.1.347.34.177.433Z" transform="translate(-113.101 -3.01)" fill="#1f2131"/>
</svg>
