<svg xmlns="http://www.w3.org/2000/svg" xmlns:xlink="http://www.w3.org/1999/xlink" width="321.4" height="40.04" viewBox="0 0 321.4 40.04">
  <defs>
    <linearGradient id="linear-gradient" x1="0.466" y1="0.5" x2="0.647" y2="0.5" gradientUnits="objectBoundingBox">
      <stop offset="0" stop-color="#e50056"/>
      <stop offset="1" stop-color="#6d19e5"/>
    </linearGradient>
  </defs>
  <path id="Trazado_1350" data-name="Trazado 1350" d="M-161.1-17l2.24,5.8c8.68-2.68,10.08-8.12,10.56-15.4h1.6l-1.2,3.6V0h6.4V-28.2h-12.44C-153.94-21.76-155.9-19.04-161.1-17Zm62.04,9.24c0-5.12-6.04-7.48-11.04-9.16v-5.84c2.08.48,3.48,1.68,3.48,4.16h6.4c0-5-3.08-9.04-9.88-9.84v-5.68h-4v5.56c-6.4.32-9.72,2.92-9.72,7.4,0,5.2,4.28,6.92,9.72,8.76v7c-3.28-.52-4.6-2.08-4.6-5.48h-6.4c0,6.4,3.04,10.4,11,11.16V5.92h4V.4C-102.18.12-99.06-3.12-99.06-7.76Zm-18.36-13.16c0-1.2,1.24-1.84,3.32-2.04v4.68C-116.94-19.32-117.42-19.84-117.42-20.92ZM-110.1-5.2v-5.84c2.72.92,4.64,1.84,4.64,3.36C-105.46-6.28-106.62-5.32-110.1-5.2ZM-72.46,0h6.48l-8.16-28.2h-13.2L-95.46,0h6.48l2.52-9.04h11.44ZM-84.9-14.64l3.36-11.96h1.6l3.36,11.96ZM-52.78-28.2h-10.4V0h10.4c7.52,0,15.36-1.96,15.36-14.12C-37.42-26.24-45.26-28.2-52.78-28.2Zm0,22.6h-4v-17h4c5,0,8.96.4,8.96,8.48C-43.82-6-47.78-5.6-52.78-5.6Zm43.4-2.16c0-5.88-7.96-8.12-13.16-9.88-4.52-1.52-5.2-2-5.2-3.28,0-1.44,1.8-2.08,4.68-2.08,3.48,0,6.12.96,6.12,4.4h6.4c0-5.6-3.88-10-12.52-10-7.28,0-11.08,2.64-11.08,7.44,0,5.52,4.84,7.12,10.8,9.12,4.12,1.4,7.56,2.32,7.56,4.36,0,1.52-1.36,2.48-5.48,2.48-5.6,0-7.76-1.36-7.76-5.68h-6.4C-35.42-3.76-31.62.4-21.46.4-12.78.4-9.38-2.92-9.38-7.76ZM5.82-17.6v4.8h21.6v-4.8Zm0,8.8V-4h21.6V-8.8ZM42.62-17l2.24,5.8c8.68-2.68,10.08-8.12,10.56-15.4h1.6L55.82-23V0h6.4V-28.2H49.78C49.78-21.76,47.82-19.04,42.62-17Zm34.8,6.52C77.42-3.44,81.78.4,90.14.4S102.9-3.44,102.9-10.48V-28.2H96.5v14.88c0,5.04-.48,8.12-6.36,8.12s-6.32-3.08-6.32-8.12V-28.2h-6.4Zm53.92,2.72c0-5.88-7.96-8.12-13.16-9.88-4.52-1.52-5.2-2-5.2-3.28,0-1.44,1.8-2.08,4.68-2.08,3.48,0,6.12.96,6.12,4.4h6.4c0-5.6-3.88-10-12.52-10-7.28,0-11.08,2.64-11.08,7.44,0,5.52,4.84,7.12,10.8,9.12,4.12,1.4,7.56,2.32,7.56,4.36,0,1.52-1.36,2.48-5.48,2.48-5.6,0-7.76-1.36-7.76-5.68h-6.4C105.3-3.76,109.1.4,119.26.4,127.94.4,131.34-2.92,131.34-7.76Zm13.6-20.44h-10.4V0h10.4c7.52,0,15.36-1.96,15.36-14.12C160.3-26.24,152.46-28.2,144.94-28.2Zm0,22.6h-4v-17h4c5,0,8.96.4,8.96,8.48C153.9-6,149.94-5.6,144.94-5.6Z" transform="translate(161.1 34.12)" fill="url(#linear-gradient)"/>
</svg>
