<svg xmlns="http://www.w3.org/2000/svg" xmlns:xlink="http://www.w3.org/1999/xlink" width="264.44" height="36.6" viewBox="0 0 264.44 36.6">
  <defs>
    <linearGradient id="linear-gradient" x1="0.073" y1="0.5" x2="0.854" y2="1" gradientUnits="objectBoundingBox">
      <stop offset="0" stop-color="#e50056"/>
      <stop offset="1" stop-color="#6d19e5"/>
    </linearGradient>
  </defs>
  <path id="Trazado_1342" data-name="Trazado 1342" d="M1.6-10.12C1.6-3.36,6.2.4,12.64.4c5.52,0,10.56-3,10.84-8.76h-6.4c-.24,1.8-1.88,3.16-4.44,3.16C9.6-5.2,8-7,8-10.12,8-13.2,9.6-15,12.64-15c2.56,0,4.2,1.36,4.44,3.16h6.4c-.28-5.76-5.32-8.76-10.84-8.76C6.2-20.6,1.6-16.84,1.6-10.12Zm23.88,0C25.48-3.04,30.52.4,36.88.4,43.2.4,48.24-3.04,48.24-10.12c0-7.04-5.04-10.48-11.36-10.48C30.52-20.6,25.48-17.16,25.48-10.12Zm6.4,0c0-3.36,1.96-4.88,5-4.88,3,0,4.96,1.52,4.96,4.88,0,3.4-1.96,4.92-4.96,4.92C33.84-5.2,31.88-6.72,31.88-10.12ZM78.08-20.6c-3.92,0-5.72,2.44-6.52,6.04H70.4c-.6-3.52-2.2-6.04-6-6.04-3.92,0-5.76,2.44-6.56,6.04h-1.6l1.2-3.6V-20.2h-6.4V0h6.4V-7.08c0-4.88.8-7.92,4.28-7.92,2.36,0,3,1.08,3,4.92V0h6.4V-7.08c0-4.88.8-7.92,4.28-7.92,2.36,0,3,1.08,3,4.92V0h6.4V-10.52C84.8-15.96,83.24-20.6,78.08-20.6Zm17.4-1.6c2.36,0,3.84-1.12,3.84-3.2,0-2.04-1.48-3.2-3.84-3.2s-3.76,1.16-3.76,3.2C91.72-23.32,93.12-22.2,95.48-22.2ZM87.2,0h17.6V-5.6H99.08V-17.24c0-2.24-1.24-3.48-3.48-3.36l-7.6.4v5.6l4.92-.24V-5.6H87.2Zm32.16-15c3.08,0,4.16,1.4,4.16,5.08V0h6.4V-10.92c0-6.24-3.12-9.68-8.28-9.68-4.32,0-6.84,2.84-7.64,6.44h-1.6l1.2-3.6V-20.2h-6.4V0h6.4V-7.48C113.6-13.16,115.88-15,119.36-15Zm37.04-5.2c-1.8,0-3.88.2-5.08,1.76a13.334,13.334,0,0,0-8-2.16c-6.36,0-11.4,2.56-11.4,7.88,0,6.64,7.8,7.72,15.2,5.08v1.6A99.245,99.245,0,0,1,134.68-4.2l.68,3.6c6.2-1.04,13.44-2.36,13.44.6,0,2.2-2.48,2.4-15.56,2.4V8c15,0,22-.68,22-6.64,0-4.28-4.28-5.48-8.88-5.2,5.56-1.88,9.12-4.28,9.12-8.08a4.485,4.485,0,0,0-.56-2.32,3.45,3.45,0,0,1,1.88-.36h1.36v-5.6ZM143.72-9.64c-3.84,0-5.4-.96-5.4-2.68,0-1.68,1.56-2.68,5.4-2.68s5.36,1,5.36,2.68C149.08-10.6,147.56-9.64,143.72-9.64ZM191-5.56c0-4.2-3.6-5.2-7.52-6.48-3.2-1.04-5.2-1.64-5.2-2.6,0-.8.84-1.16,2.36-1.16,2.2,0,3.28,1.08,3.28,2.52h6.4c0-3.92-2.8-7.32-9.64-7.32-5.56,0-8.8,2.08-8.8,5.68,0,4.52,4.6,5.52,8.36,6.76,3.24,1.08,4.36,1.36,4.36,2.4,0,.96-1.08,1.36-2.8,1.36-3.36,0-4.44-1.36-4.44-2.92h-6.4c0,4.72,3.2,7.72,10.64,7.72C188.56.4,191-2.16,191-5.56Zm2-4.56C193-3.04,198.04.4,204.4.4c6.32,0,11.36-3.44,11.36-10.52,0-7.04-5.04-10.48-11.36-10.48C198.04-20.6,193-17.16,193-10.12Zm6.4,0c0-3.36,1.96-4.88,5-4.88,3,0,4.96,1.52,4.96,4.88,0,3.4-1.96,4.92-4.96,4.92C201.36-5.2,199.4-6.72,199.4-10.12Zm18.36,0C217.76-3.04,222.8.4,229.16.4c6.32,0,11.36-3.44,11.36-10.52,0-7.04-5.04-10.48-11.36-10.48C222.8-20.6,217.76-17.16,217.76-10.12Zm6.4,0c0-3.36,1.96-4.88,5-4.88,3,0,4.96,1.52,4.96,4.88,0,3.4-1.96,4.92-4.96,4.92C226.12-5.2,224.16-6.72,224.16-10.12ZM255.48-15c3.08,0,4.16,1.4,4.16,5.08V0h6.4V-10.92c0-6.24-3.12-9.68-8.28-9.68-4.32,0-6.84,2.84-7.64,6.44h-1.6l1.2-3.6V-20.2h-6.4V0h6.4V-7.48C249.72-13.16,252-15,255.48-15Z" transform="translate(-1.6 28.6)" fill="url(#linear-gradient)"/>
</svg>
