<svg xmlns="http://www.w3.org/2000/svg" xmlns:xlink="http://www.w3.org/1999/xlink" width="376.32" height="38.088" viewBox="0 0 376.32 38.088">
  <defs>
    <linearGradient id="linear-gradient" x1="0.115" y1="0.663" x2="0.854" y2="0.663" gradientUnits="objectBoundingBox">
      <stop offset="0" stop-color="#e50056"/>
      <stop offset="1" stop-color="#6d19e5"/>
    </linearGradient>
  </defs>
  <path id="Trazado_1348" data-name="Trazado 1348" d="M12.52-28.2H2.4V0H8.8V-8.4h3.72c7.12,0,12.56-1.36,12.56-9.92C25.08-26.84,19.64-28.2,12.52-28.2Zm.4,14.2H8.8v-8.6h4.12c3.8,0,5.76.4,5.76,4.28C18.68-14.4,16.72-14,12.92-14ZM25.48,0h17.6V-5.6h-5.6V-26.32A3.023,3.023,0,0,0,34-29.68l-7.72.28v5.6l4.8-.24V-5.6h-5.6Zm19.6-5.52C45.08-3.44,46.16.4,52.44.4c5.64,0,7.6-2.84,8.36-6.2h1.6l-1,2.4V-3a2.719,2.719,0,0,0,3,3h4.44V-5.6H65.92v-5.68c0-6.64-4.88-9.32-10.44-9.32-5.64,0-10,3-10,8.12h6c0-1.84,1.44-2.92,4-2.92,2.76,0,4.04,1,4.04,2.64l-6.36.88C47.16-11.04,45.08-9,45.08-5.52Zm6.4-1.2c0-1.16.96-1.44,2.88-1.72l5.16-.72c0,2.48-2.32,3.96-5.84,3.96C52.6-5.2,51.48-5.56,51.48-6.72ZM83.68-20.2,79.28-9.08v3.2h-1.6v-3.2L73.24-20.2h-7.2l9.24,19V2.64l-6.92-.12v5.6l9.88.28c2.2.08,3.44-1.12,3.44-3.36V-1.2l9.24-19ZM93.24-7.28,89.32,6.88l4.64,1.24L97.88-6.04ZM114.28,0h6.4V-1.24l-1.2-3.6h1.6C122.12-2.16,124.04.4,129.04.4c5.84,0,8.76-4.8,8.76-10.52s-2.92-10.48-8.76-10.48c-5,0-6.92,2.56-7.96,5.24h-1.6l1.2-3.6V-29.4h-6.4Zm6.4-10.12A4.992,4.992,0,0,1,126.04-15c3.44,0,5.36,1.48,5.36,4.88s-1.92,4.92-5.36,4.92A5.022,5.022,0,0,1,120.68-10.12Zm19.12-.24C139.8-4.64,143.36.4,151.12.4c7,0,10.32-4.6,10.72-7.52h-6.4c-.4,1.52-2.08,2.32-4.32,2.32-3.64,0-5.32-1.64-5.32-3.96h15.32v-2c0-6.12-4.4-9.84-10.68-9.84S139.8-16.76,139.8-10.36Zm6-2c0-1.52,1.08-3.04,4.64-3.04s4.68,1.52,4.68,3.04ZM173.84-5.2v-9.4h6.64v-5.6h-6.64V-26l-6.4,2v3.8h-4.8v5.6h4.8V-3c0,2.2,1.2,3.48,3.4,3.4L181.28,0V-5.6Zm21.44-.32c0,2.08,1.08,5.92,7.36,5.92,5.64,0,7.6-2.84,8.36-6.2h1.6l-1,2.4V-3a2.719,2.719,0,0,0,3,3h4.44V-5.6h-2.92v-5.68c0-6.64-4.88-9.32-10.44-9.32-5.64,0-10,3-10,8.12h6c0-1.84,1.44-2.92,4-2.92,2.76,0,4.04,1,4.04,2.64l-6.36.88C197.36-11.04,195.28-9,195.28-5.52Zm6.4-1.2c0-1.16.96-1.44,2.88-1.72l5.16-.72c0,2.48-2.32,3.96-5.84,3.96C202.8-5.2,201.68-5.56,201.68-6.72ZM233.6-15c3.08,0,4.16,1.4,4.16,5.08V0h6.4V-10.92c0-6.24-3.12-9.68-8.28-9.68-4.32,0-6.84,2.84-7.64,6.44h-1.6l1.2-3.6V-20.2h-6.4V0h6.4V-7.48C227.84-13.16,230.12-15,233.6-15ZM270.08,0V-29.4h-6.4v10.44l1.2,3.6h-1.6c-1.04-2.68-2.96-5.24-7.96-5.24-5.84,0-8.76,4.76-8.76,10.48S249.48.4,255.32.4c5,0,6.92-2.56,7.96-5.24h1.6l-1.2,3.6V0Zm-6.4-10.12c0,3.4-1.92,4.92-5.36,4.92s-5.36-1.52-5.36-4.92S254.88-15,258.32-15,263.68-13.52,263.68-10.12Zm20.4-10.08L286.92,0h13.36l1.56-18.6h1.6L305,0h13.36l2.84-20.2h-6.08L312.48-1.6h-1.6l-1.56-18.6H295.96L294.4-1.6h-1.6l-2.6-18.6Zm47-2c2.36,0,3.84-1.12,3.84-3.2,0-2.04-1.48-3.2-3.84-3.2s-3.76,1.16-3.76,3.2C327.32-23.32,328.72-22.2,331.08-22.2ZM322.8,0h17.6V-5.6h-5.72V-17.24c0-2.24-1.24-3.48-3.48-3.36l-7.6.4v5.6l4.92-.24V-5.6H322.8Zm32.16-15c3.08,0,4.16,1.4,4.16,5.08V0h6.4V-10.92c0-6.24-3.12-9.68-8.28-9.68-4.32,0-6.84,2.84-7.64,6.44H348l1.2-3.6V-20.2h-6.4V0h6.4V-7.48C349.2-13.16,351.48-15,354.96-15ZM374.28.4a4.286,4.286,0,0,0,4.44-4.44,4.267,4.267,0,0,0-4.44-4.36,4.156,4.156,0,0,0-4.36,4.36A4.177,4.177,0,0,0,374.28.4Z" transform="translate(-2.4 29.684)" fill="url(#linear-gradient)"/>
</svg>
