<svg xmlns="http://www.w3.org/2000/svg" xmlns:xlink="http://www.w3.org/1999/xlink" width="320.796" height="50.591" viewBox="0 0 320.796 50.591">
  <defs>
    <linearGradient id="linear-gradient" x1="-0.03" y1="0.5" x2="0.973" y2="0.5" gradientUnits="objectBoundingBox">
      <stop offset="0" stop-color="#e50056"/>
      <stop offset="1" stop-color="#6d19e5"/>
    </linearGradient>
  </defs>
  <path id="Trazado_1380" data-name="Trazado 1380" d="M19.43-8.71V-24.455H30.552v-9.38H19.43V-43.55L8.71-40.2v6.365H.67v9.38H8.71v19.43c0,3.685,2.01,5.829,5.7,5.7L31.892,0V-9.38ZM61.439-34.5c-7.236,0-11.457,4.757-12.8,10.787h-2.68l2.01-6.03v-19.5H37.252V0h10.72V-12.529c0-9.514,3.819-12.6,9.648-12.6,5.159,0,6.968,2.345,6.968,8.509V0h10.72V-18.291C75.308-28.743,70.082-34.5,61.439-34.5ZM79.328-17.353C79.328-7.772,85.291.67,98.289.67c11.725,0,17.286-7.7,17.956-12.6h-10.72c-.67,2.546-3.484,3.886-7.236,3.886-6.1,0-8.911-2.747-8.911-6.633h25.661v-3.35c0-10.251-7.37-16.482-17.889-16.482S79.328-28.073,79.328-17.353Zm10.05-3.35c0-2.546,1.809-5.092,7.772-5.092s7.839,2.546,7.839,5.092ZM177.55,0H188.4L174.736-47.235h-22.11L139.025,0h10.854L154.1-15.142h19.162ZM156.713-24.522l5.628-20.033h2.68l5.628,20.033Zm53.8-22.713h-17.42V0h17.42c12.6,0,25.728-3.283,25.728-23.651C236.242-43.952,223.11-47.235,210.514-47.235Zm0,37.855h-6.7V-37.855h6.7c8.375,0,15.008.67,15.008,14.2C225.522-10.05,218.889-9.38,210.514-9.38Zm27.068-37.855L251.183,0h22.11l13.668-47.235H276.107L263.578-2.68H260.9L248.436-47.235ZM291.651-36.18h8.04c0-4.489,2.144-7.035,7.7-7.035,3.484,0,6.03,1.273,6.03,4.355,0,5.9-8.643,8.04-18.157,8.241v13.266h23.048v-6.7H303.041l-5.092,1.809v-2.278c10.653-1.139,23.517-3.886,23.517-14.606,0-5.025-3.484-10.787-13.936-10.787C296.207-49.915,291.651-43.684,291.651-36.18ZM306.726.67a7.179,7.179,0,0,0,7.437-7.437,7.147,7.147,0,0,0-7.437-7.3,6.961,6.961,0,0,0-7.3,7.3C299.423-2.546,302.17.67,306.726.67Z" transform="translate(-0.67 49.915)" fill="url(#linear-gradient)"/>
</svg>
