<svg xmlns="http://www.w3.org/2000/svg" xmlns:xlink="http://www.w3.org/1999/xlink" width="139" height="139" viewBox="0 0 139 139">
  <defs>
    <linearGradient id="linear-gradient" x1="0.5" x2="0.5" y2="1.282" gradientUnits="objectBoundingBox">
      <stop offset="0" stop-color="#e50056"/>
      <stop offset="1" stop-color="#6d19e5"/>
    </linearGradient>
    <filter id="Elipse_6" x="0" y="0" width="139" height="139" filterUnits="userSpaceOnUse">
      <feOffset dy="3" input="SourceAlpha"/>
      <feGaussianBlur stdDeviation="15" result="blur"/>
      <feFlood flood-color="#9510b5" flood-opacity="0.588"/>
      <feComposite operator="in" in2="blur"/>
      <feComposite in="SourceGraphic"/>
    </filter>
  </defs>
  <g id="Grupo_1487" data-name="Grupo 1487" transform="translate(-1109 -566)">
    <g id="Grupo_1486" data-name="Grupo 1486" transform="translate(-1952.664 -2.956)">
      <path id="Trazado_29" data-name="Trazado 29" d="M75.044,11.951A31.54,31.54,0,0,0,51.048,0a31.54,31.54,0,0,0-24,11.947C16.375,25.234,6.885,26.783,3.972,26.926H98.123c-2.913-.143-12.4-1.692-23.079-14.975" transform="translate(3080.186 599.979)" fill="#0a0b0d"/>
      <path id="Trazado_30" data-name="Trazado 30" d="M75.044,14.975a31.54,31.54,0,0,1-24,11.947,31.54,31.54,0,0,1-24-11.947C16.375,1.692,6.885.143,3.972,0H98.123c-2.913.143-12.4,1.692-23.079,14.975" transform="translate(3080.186 643.139)" fill="#0a0b0d"/>
      <g transform="matrix(1, 0, 0, 1, 3061.66, 568.96)" filter="url(#Elipse_6)">
        <circle id="Elipse_6-2" data-name="Elipse 6" cx="24.5" cy="24.5" r="24.5" transform="translate(45 42)" fill="url(#linear-gradient)"/>
      </g>
    </g>
    <path id="Trazado_23" data-name="Trazado 23" d="M10.662,0l4.494,7.531H7.966L0,20.879H7.2l7.96-13.337,3.466,5.807h7.2L17.866,0Z" transform="translate(1165.091 621.077)" fill="#fff"/>
  </g>
</svg>
